<?xml version="1.0" encoding="UTF-8" standalone="no"?>
<!-- Created with Inkscape (http://www.inkscape.org/) -->

<svg
   xmlns:dc="http://purl.org/dc/elements/1.1/"
   xmlns:cc="http://creativecommons.org/ns#"
   xmlns:rdf="http://www.w3.org/1999/02/22-rdf-syntax-ns#"
   xmlns:svg="http://www.w3.org/2000/svg"
   xmlns="http://www.w3.org/2000/svg"
   xmlns:sodipodi="http://sodipodi.sourceforge.net/DTD/sodipodi-0.dtd"
   xmlns:inkscape="http://www.inkscape.org/namespaces/inkscape"
   version="1.1"
   id="svg3713"
   width="288"
   height="216"
   viewBox="0 0 288 216"
   sodipodi:docname="ghost.svg"
   inkscape:export-filename="D:\Box Sync\CSC493\final project\specter\images\ghost.png"
   inkscape:export-xdpi="96"
   inkscape:export-ydpi="96"
   inkscape:version="0.92.4 (5da689c313, 2019-01-14)">
  <metadata
     id="metadata3719">
    <rdf:RDF>
      <cc:Work
         rdf:about="">
        <dc:format>image/svg+xml</dc:format>
        <dc:type
           rdf:resource="http://purl.org/dc/dcmitype/StillImage" />
        <dc:title></dc:title>
      </cc:Work>
    </rdf:RDF>
  </metadata>
  <defs
     id="defs3717" />
  <sodipodi:namedview
     pagecolor="#ffffff"
     bordercolor="#666666"
     borderopacity="1"
     objecttolerance="10"
     gridtolerance="10"
     guidetolerance="10"
     inkscape:pageopacity="0"
     inkscape:pageshadow="2"
     inkscape:window-width="1366"
     inkscape:window-height="706"
     id="namedview3715"
     showgrid="false"
     inkscape:zoom="1.8645833"
     inkscape:cx="26.97274"
     inkscape:cy="139.64586"
     inkscape:window-x="-8"
     inkscape:window-y="-8"
     inkscape:window-maximized="1"
     inkscape:current-layer="svg3713" />
  <path
     style="fill:#000000"
     d="m 125.05753,165.4399 c -3.3,-1.90147 -6.99723,-3.46284 -8.21607,-3.46973 -3.58208,-0.0202 -8.85891,-3.02299 -10.6547,-6.06303 -1.32981,-2.25118 -1.47912,-3.69268 -0.73907,-7.13529 2.01408,-9.36937 3.40509,-36.37632 2.77274,-53.833786 -0.91627,-25.29582 1.0261,-34.33606 9.11543,-42.425384 8.84838,-8.848375 25.77269,-11.792227 37.53044,-6.528128 8.64531,3.870622 14.38655,11.928792 17.43647,24.473122 1.37681,5.66284 1.93209,9.12721 4.1674,26 1.46579,11.064226 3.58875,19.965956 8.73143,36.611646 0.78362,2.5364 1.47573,7.60254 1.53803,11.25807 0.13222,7.75969 -1.03132,9.60033 -7.39678,11.70112 -2.30218,0.75979 -6.68176,3.56561 -9.7324,6.23516 -6.0399,5.28538 -5.37116,5.17331 -18.71429,3.13616 -2.9852,-0.45577 -5.83045,-0.0428 -10.06659,1.46125 -7.7305,2.74463 -8.69273,2.65793 -15.77204,-1.42118 z m 16.09889,-2.56431 c 1.324,-1.09882 13.05816,-0.74941 18.9075,0.56301 2.61908,0.58765 3.58528,0.11319 7.5,-3.68293 2.47149,-2.39661 6.51862,-5.21705 8.99362,-6.26764 2.475,-1.05058 5.09718,-2.35859 5.82707,-2.90667 1.99823,-1.50049 0.9737,-11.55439 -2.25447,-22.12369 -3.63297,-11.89464 -6.42103,-25.48108 -8.61876,-41.999996 -1.52303,-11.44762 -1.95656,-13.73475 -3.69627,-19.5 -4.06825,-13.481826 -12.80649,-19.999994 -26.81197,-19.999994 -12.65814,0 -21.22562,5.138572 -26.67663,15.999994 -2.16694,4.31775 -2.28637,5.89728 -2.94881,38.999996 -0.37973,18.975 -1.1102,38.1 -1.62327,42.49999 -1.25808,10.78906 -0.75297,11.80093 6.96931,13.96161 3.48358,0.9747 7.45879,2.55541 8.83379,3.5127 1.375,0.95729 3.175,2.01767 4,2.35642 2.0911,0.8586 10.02669,-0.10799 11.59889,-1.4128 z m -15.84998,-31.44992 c -4.35808,-4.04104 -9.64127,-15.79846 -7.65159,-17.02815 1.37229,-0.84812 3.90268,1.43996 3.90268,3.52896 0,4.00869 6.59792,13.03119 9.52937,13.03119 1.92852,0 2.63464,-2.96585 1.52436,-6.40262 -1.70709,-5.28415 -1.7687,-12.09738 -0.1094,-12.09738 1.3471,0 3.74355,9.74967 3.97667,16.17857 0.19434,5.35954 -6.57703,7.0502 -11.17209,2.78943 z m 33.93926,-2.26009 c -0.90073,-0.99529 -1.89563,-4.44106 -2.23767,-7.75 -0.33871,-3.27685 -1.00176,-7.18546 -1.47344,-8.68581 -0.52599,-1.67308 -0.47708,-2.96306 0.12648,-3.33609 2.1246,-1.31307 3.64652,1.8265 4.12463,8.50873 0.60451,8.44878 2.38488,10.99607 5.59512,8.00528 2.32071,-2.16208 4.16268,-7.77038 4.17114,-12.70002 0.006,-3.59852 1.51791,-4.36186 2.50143,-1.26308 0.75514,2.37923 -0.34176,10.72556 -1.77049,13.47168 -2.67265,5.13702 -8.10983,6.98402 -11.0372,3.74931 z m -16.46302,-16.93466 c -2.26925,-0.81255 -4.25791,-7.42754 -4.88381,-16.245286 -0.51975,-7.32222 -0.35544,-8.87101 1.09501,-10.32145 4.5228,-4.52279 8.39507,-0.62525 9.68265,9.74584 1.3837,11.145366 -1.19453,18.503596 -5.89385,16.820896 z M 123.31099,93.568154 c -4.5701,-3.46945 -2.14451,-13.42591 4.74434,-19.4744 3.85852,-3.38783 5.433,-3.80528 7.3022,-1.93608 1.85805,1.85805 1.4332,5.25558 -1.3,10.39602 -1.375,2.58602 -2.5,5.24413 -2.5,5.9069 0,1.39259 -4.51573,6.51258 -5.70225,6.46528 -0.43876,-0.0175 -1.5837,-0.62847 -2.54429,-1.35772 z m 34.04021,-7.43077 c -3.24536,-1.29277 -11.95481,-12.02901 -11.61455,-14.31737 0.41916,-2.819 2.90627,-4.30871 5.92753,-3.55042 3.09427,0.77661 10.33321,7.92156 11.92899,11.77409 1.05464,2.54614 0.9757,3.24398 -0.55873,4.93951 -1.8745,2.0713 -2.87226,2.27394 -5.68324,1.15419 z"
     id="path3723"
     inkscape:connector-curvature="0" />
</svg>
